<svg class="w-6 h-6" height="40" width="40" xmlns="http://www.w3.org/2000/svg"><defs><linearGradient x1="0%" y1="100%" x2="100%" y2="0%" id="Arch_AWS-Command-Line-Interface_32_svg__a"><stop stop-color="#2E27AD" offset="0%"></stop><stop stop-color="#527FFF" offset="100%"></stop></linearGradient></defs><g fill="none" fill-rule="evenodd"><path d="M0 0h40v40H0z" fill="url(#Arch_AWS-Command-Line-Interface_32_svg__a)"></path><path d="M6 7v27h17v-1H7V12h26v21h-3v1h4V7H6zm1 4h26V8H7v3zm6-1h1V9h-1v1zm-2 0h1V9h-1v1zm-2 0h1V9H9v1zm1.647 8.354L15.293 23l-4.646 4.647.706.706L16.707 23l-5.354-5.354-.706.708zM19 26h9v-1h-9v1z" fill="#FFF"></path></g></svg>